<?xml version="1.0" ?><svg data-name="Livello 1" cursor="pointer" fill="transparent" id="Livello_1" viewBox="0 0 64 64" xmlns="http://www.w3.org/2000/svg"><defs><style>.cls-1,.cls-2{fill:none;stroke:#fff;stroke-linecap:round;stroke-width:2px;}.cls-1{stroke-linejoin:round;}.cls-2{stroke-miterlimit:10;}</style></defs><title/><path d="M0,32A32,32,0,1,0,32,0,32,32,0,0,0,0,32Z"/><path className="cls-1" d="M47.55,23.76L33,38.76,32.59,39l-7.41,1a0.41,0.41,0,0,1-.45-0.46l0.94-7.57,0.23-.47,14.55-15a1.5,1.5,0,0,1,2.16,0l4.94,5.08A1.6,1.6,0,0,1,47.55,23.76Z"/><path className="cls-2" d="M42.18,36.94V47.41a1.48,1.48,0,0,1-1.45,1.5H17.45A1.48,1.48,0,0,1,16,47.41V23.48A1.48,1.48,0,0,1,17.45,22H27.64"/></svg>
